<svg width="452" height="452" viewBox="0 0 452 452" fill="none" xmlns="http://www.w3.org/2000/svg">
<g filter="url(#filter0_biiiii_1_919)">
<path d="M17.2154 24.4773C11.5165 54.9928 15.2866 85.958 20.1876 106.526L20.1876 106.526C22.1818 114.896 23.1789 119.08 23.0386 122.049C22.8982 125.017 21.6217 128.764 19.0686 136.257C-122.633 552.121 576.663 562.903 432.238 134.598L432.237 134.597C429.971 127.875 428.837 124.514 428.672 121.705C428.507 118.895 429.267 115.287 430.787 108.07C437.751 75.0148 435.565 45.4885 431.15 24.5427C428.845 13.6117 427.693 8.14624 420.008 3.41926C412.323 -1.30773 407.153 0.0683892 396.812 2.82062C373.951 8.90541 351.56 21.4048 335.027 32.762C324.77 39.8072 319.642 43.3298 315.266 44.1448C310.89 44.9599 305.081 43.5776 293.461 40.8131C236.482 27.2567 186.307 31.9736 154.877 39.5147C141.578 42.7057 134.928 44.3012 130.572 43.5083C126.217 42.7153 120.97 39.1591 110.476 32.0466C86.966 16.1129 66.2527 7.33674 50.5072 2.9057C40.7758 0.167144 35.9102 -1.20213 28.0485 3.68222C20.1868 8.56658 19.1963 13.8702 17.2154 24.4773Z" fill="#0C1828" fill-opacity="0.31"/>
</g>
<defs>
<filter id="filter0_biiiii_1_919" x="-10.4052" y="-10.0974" width="472.81" height="472.503" filterUnits="userSpaceOnUse" color-interpolation-filters="sRGB">
<feFlood flood-opacity="0" result="BackgroundImageFix"/>
<feGaussianBlur in="BackgroundImageFix" stdDeviation="5.20258"/>
<feComposite in2="SourceAlpha" operator="in" result="effect1_backgroundBlur_1_919"/>
<feBlend mode="normal" in="SourceGraphic" in2="effect1_backgroundBlur_1_919" result="shape"/>
<feColorMatrix in="SourceAlpha" type="matrix" values="0 0 0 0 0 0 0 0 0 0 0 0 0 0 0 0 0 0 127 0" result="hardAlpha"/>
<feOffset dy="0.128348"/>
<feGaussianBlur stdDeviation="2.56697"/>
<feComposite in2="hardAlpha" operator="arithmetic" k2="-1" k3="1"/>
<feColorMatrix type="matrix" values="0 0 0 0 0.909804 0 0 0 0 0.909804 0 0 0 0 0.909804 0 0 0 0.2 0"/>
<feBlend mode="normal" in2="shape" result="effect2_innerShadow_1_919"/>
<feColorMatrix in="SourceAlpha" type="matrix" values="0 0 0 0 0 0 0 0 0 0 0 0 0 0 0 0 0 0 127 0" result="hardAlpha"/>
<feOffset dy="0.513394"/>
<feGaussianBlur stdDeviation="1.15514"/>
<feComposite in2="hardAlpha" operator="arithmetic" k2="-1" k3="1"/>
<feColorMatrix type="matrix" values="0 0 0 0 0.909804 0 0 0 0 0.909804 0 0 0 0 0.909804 0 0 0 0.5 0"/>
<feBlend mode="normal" in2="effect2_innerShadow_1_919" result="effect3_innerShadow_1_919"/>
<feColorMatrix in="SourceAlpha" type="matrix" values="0 0 0 0 0 0 0 0 0 0 0 0 0 0 0 0 0 0 127 0" result="hardAlpha"/>
<feMorphology radius="6.16073" operator="dilate" in="SourceAlpha" result="effect4_innerShadow_1_919"/>
<feOffset dy="12.5782"/>
<feGaussianBlur stdDeviation="6.41742"/>
<feComposite in2="hardAlpha" operator="arithmetic" k2="-1" k3="1"/>
<feColorMatrix type="matrix" values="0 0 0 0 0.909804 0 0 0 0 0.909804 0 0 0 0 0.909804 0 0 0 0.3 0"/>
<feBlend mode="normal" in2="effect3_innerShadow_1_919" result="effect4_innerShadow_1_919"/>
<feColorMatrix in="SourceAlpha" type="matrix" values="0 0 0 0 0 0 0 0 0 0 0 0 0 0 0 0 0 0 127 0" result="hardAlpha"/>
<feMorphology radius="8.2143" operator="dilate" in="SourceAlpha" result="effect5_innerShadow_1_919"/>
<feOffset dy="-10.5246"/>
<feGaussianBlur stdDeviation="4.36385"/>
<feComposite in2="hardAlpha" operator="arithmetic" k2="-1" k3="1"/>
<feColorMatrix type="matrix" values="0 0 0 0 0.908333 0 0 0 0 0.908333 0 0 0 0 0.908333 0 0 0 1 0"/>
<feBlend mode="normal" in2="effect4_innerShadow_1_919" result="effect5_innerShadow_1_919"/>
<feColorMatrix in="SourceAlpha" type="matrix" values="0 0 0 0 0 0 0 0 0 0 0 0 0 0 0 0 0 0 127 0" result="hardAlpha"/>
<feMorphology radius="0.513394" operator="dilate" in="SourceAlpha" result="effect6_innerShadow_1_919"/>
<feOffset dy="0.898439"/>
<feGaussianBlur stdDeviation="0.705917"/>
<feComposite in2="hardAlpha" operator="arithmetic" k2="-1" k3="1"/>
<feColorMatrix type="matrix" values="0 0 0 0 1 0 0 0 0 1 0 0 0 0 1 0 0 0 1 0"/>
<feBlend mode="normal" in2="effect5_innerShadow_1_919" result="effect6_innerShadow_1_919"/>
</filter>
</defs>
</svg>
